<svg viewBox="0 0 1152 757" fill="none" xmlns="http://www.w3.org/2000/svg">
<g clip-path="url(#clip0)">
<rect width="1152" height="756.06" fill="white"/>
<path d="M579 459C537.056 552.31 609.969 628.392 684 699C816.256 825.141 969.234 699 1152 699V-1H670C670 -1 680.173 19.7858 680 34C679.482 76.5282 614.209 57.1698 586 89C509.965 174.796 717.538 270.63 664 372C641.817 414.002 598.474 415.676 579 459Z" fill="#2f3542" fill-opacity="0.63"/>
<path d="M604.743 459.353C564.684 552.532 634.321 628.508 705.026 699.016C831.34 824.98 977.446 699.016 1152 699.016V0H691.655C691.655 0 701.371 20.7565 701.206 34.9508C700.711 77.4192 638.37 58.088 611.429 89.8735C538.81 175.548 737.058 271.249 685.925 372.476C664.738 414.418 623.343 416.09 604.743 459.353Z" fill="#202020" fill-opacity="1"/>
</g>
<defs>
<clipPath id="clip0">
<rect width="1152" height="756.06" fill="white"/>
</clipPath>
</defs>
</svg>
